<svg xmlns="http://www.w3.org/2000/svg" width="37.009" height="24" viewBox="0 0 37.009 24">
    <defs>
        <style>
            .cls-1{fill:#13a8e0}.cls-2{fill:#fff}
        </style>
    </defs>
    <g id="Amex" transform="translate(-.149)">
        <g id="Large">
            <g id="large_american-express" data-name="large/american-express">
                <path id="Background" d="M2.017 0h32.975A2 2 0 0 1 37 2v20a2 2 0 0 1-2.008 2H2.008A2 2 0 0 1 0 22V2a2.012 2.012 0 0 1 2.017-2z" class="cls-1" transform="translate(.149)"/>
                <g id="Logo" transform="translate(0 4.733)">
                    <g id="amex-2" data-name="amex" transform="translate(.158)">
                        <path id="Shape" d="M3.786 4.049l-.712-1.87-.707 1.87zM19.467 3.3a.9.9 0 0 1-.514.1h-1.264V2.359h1.281a1 1 0 0 1 .493.085.435.435 0 0 1 .218.415.49.49 0 0 1-.214.441zm9.013.744l-.72-1.869-.716 1.869zm-16.8 2.023h-1.067V2.395L9.1 6.072h-.912L6.676 2.4v3.672H4.561l-.4-1.046H2l-.4 1.046H.463l1.862-4.689H3.87l1.769 4.44v-4.44h1.7L8.7 4.564l1.25-3.181h1.731v4.689zm4.249 0h-3.475V1.383h3.474v.976h-2.434V3.2h2.376v.961h-2.376V5.1h2.434v.97zm4.9-3.426a1.323 1.323 0 0 1-.733 1.25 1.214 1.214 0 0 1 .514.395 1.433 1.433 0 0 1 .172.86v.921h-1.05v-.591a1.5 1.5 0 0 0-.164-.914c-.152-.165-.384-.2-.758-.2h-1.121v1.71h-1.04V1.383h2.392a2.3 2.3 0 0 1 1.259.225 1.113 1.113 0 0 1 .527 1.038zm1.664 3.426H21.43V1.383h1.061zm12.31 0h-1.475l-1.971-3.514v3.519h-2.118l-.4-1.046h-2.16l-.393 1.046h-1.222a2.083 2.083 0 0 1-1.508-.519A2.473 2.473 0 0 1 23 3.763a2.622 2.622 0 0 1 .561-1.834 2.017 2.017 0 0 1 1.579-.547h1.007v1h-.986a.957.957 0 0 0-.8.278 1.629 1.629 0 0 0-.3 1.062 1.717 1.717 0 0 0 .286 1.1.956.956 0 0 0 .725.242h.467l1.466-3.688h1.558l1.761 4.435V1.383h1.583l1.828 3.266V1.383H34.8zM.451 6.993h1.777l.4-1.042h.9l.4 1.042h3.5V6.2l.312.8h1.808l.312-.812v.808h8.689v-1.71h.168c.118 0 .152.016.152.226v1.481h4.494v-.4a3.352 3.352 0 0 0 1.668.4h1.891l.4-1.042h.9l.4 1.042h3.643V6l.552.989h2.919V.453h-2.897v.772l-.4-.772H29.47v.772L29.1.453h-4a3.378 3.378 0 0 0-1.736.382V.453H20.6v.382a1.63 1.63 0 0 0-1.179-.382H9.325l-.678 1.689L7.952.453h-3.18v.772l-.35-.772H1.71L.451 3.562v3.43z" class="cls-2" transform="translate(-.451 -.453)"/>
                        <path id="Shape-2" d="M69.717 44.068h-1.9a.676.676 0 0 0-.421.085.375.375 0 0 0-.152.337.353.353 0 0 0 .227.349 1.105 1.105 0 0 0 .4.053l.564.016a1.566 1.566 0 0 1 1.18.377.591.591 0 0 1 .1.116zm0 3.092a1.567 1.567 0 0 1-1.411.6H66.3v-1.006h2a.561.561 0 0 0 .421-.116.428.428 0 0 0 .123-.306.4.4 0 0 0-.127-.31.5.5 0 0 0-.366-.1c-.976-.036-2.195.033-2.195-1.452a1.343 1.343 0 0 1 1.492-1.4h2.072v-.933h-1.928a2.056 2.056 0 0 0-1.3.383v-.383h-2.848a1.871 1.871 0 0 0-1.242.383v-.383h-5.084v.383a2.551 2.551 0 0 0-1.4-.383h-3.356v.383a2.239 2.239 0 0 0-1.466-.383h-3.752l-.859 1-.8-1h-5.61v6.544h5.5l.885-1.017.834 1.017h3.39v-1.54h.333a3.3 3.3 0 0 0 1.449-.23v1.766h2.8v-1.702h.134c.172 0 .189.008.189.193v1.512h8.5a2.3 2.3 0 0 0 1.415-.419v.419h2.695a3.383 3.383 0 0 0 1.525-.3zm-4.148-1.874a1.367 1.367 0 0 1 .311.994c0 1.009-.585 1.48-1.634 1.48h-2.025v-1.006h2.017a.579.579 0 0 0 .425-.116.431.431 0 0 0 .123-.306.416.416 0 0 0-.127-.31.519.519 0 0 0-.37-.1c-.973-.036-2.191.033-2.191-1.452a1.339 1.339 0 0 1 1.487-1.4h2.085v1h-1.908a.661.661 0 0 0-.417.085.369.369 0 0 0-.156.337.358.358 0 0 0 .228.349 1.115 1.115 0 0 0 .4.053l.56.016a1.6 1.6 0 0 1 1.192.376zM56.185 45a.933.933 0 0 1-.513.1h-1.264v-1.06h1.281a.959.959 0 0 1 .5.085.454.454 0 0 1 .215.422.518.518 0 0 1-.219.453zm.628.584a1.14 1.14 0 0 1 .509.394 1.452 1.452 0 0 1 .172.856v.93H56.45v-.587a1.477 1.477 0 0 0-.168-.918c-.152-.168-.384-.208-.763-.208h-1.111v1.709h-1.045v-4.69h2.4a2.411 2.411 0 0 1 1.251.221 1.117 1.117 0 0 1 .535 1.042 1.315 1.315 0 0 1-.736 1.247zm1.314-2.511H61.6v.97h-2.438v.853h2.376v.957h-2.376v.933h2.435v.973h-3.47V43.07zm-7.017 2.161h-1.344V44.04h1.356c.375 0 .636.165.636.575a.577.577 0 0 1-.648.619zm-2.38 2.1l-1.6-1.91 1.6-1.85zm-4.123-.551H42.05v-.933h2.283v-.957H42.05v-.853h2.607l1.138 1.367zm8.268-2.168c0 1.3-.9 1.572-1.811 1.572h-1.3v1.573h-2.019l-1.281-1.553-1.331 1.553h-4.119v-4.69H45.2l1.28 1.537 1.32-1.537h3.323c.824 0 1.752.246 1.752 1.545z" class="cls-2" data-name="Shape" transform="translate(-32.717 -34.069)"/>
                    </g>
                </g>
            </g>
        </g>
    </g>
</svg>
