<svg xmlns="http://www.w3.org/2000/svg" width="24" height="24" viewBox="0 0 24 24">
    <defs>
        <style>
            .cls-1{fill:none}.cls-2{fill:#4d4d4d}
        </style>
    </defs>
    <g id="Group_1687" data-name="Group 1687" transform="translate(-1046.999 -770)">
        <path id="Rectangle_3416" d="M0 0h24v24H0z" class="cls-1" data-name="Rectangle 3416" transform="translate(1046.999 770)"/>
        <path id="Path_3857" d="M22.421 5.421a2.186 2.186 0 0 0-1.5-1.9 29.071 29.071 0 0 0-18.21 0 2.186 2.186 0 0 0-1.5 1.9 47.42 47.42 0 0 0 1.525 15.362 2.185 2.185 0 0 0 1.875 1.657 62.979 62.979 0 0 0 14.409 0 2.187 2.187 0 0 0 1.875-1.656 47.438 47.438 0 0 0 1.526-15.363zm-4.963 2.2c-.238.476-1.448 3.221-1.635 3.538a1.164 1.164 0 0 1-.927.542h-1.244l.781-3.592a.946.946 0 0 0-1.766-.65L10.7 11.7H8.734a1.163 1.163 0 0 1-.927-.542c-.185-.316-1.4-3.061-1.634-3.538a.99.99 0 0 1 .247-1.138 9.638 9.638 0 0 1 10.792 0 .99.99 0 0 1 .246 1.14z" class="cls-2" data-name="Path 3857" transform="translate(1046.723 769.646)"/>
    </g>
</svg>
