<svg xmlns="http://www.w3.org/2000/svg" width="121.079" height="22" viewBox="0 0 121.079 22">
    <defs>
        <style>
            .cls-1{fill:#3a265c}
        </style>
    </defs>
    <g id="Group_1474" data-name="Group 1474" transform="translate(-646.13 -1119.861)">
        <path id="Path_3822" d="M719.357 1120.764a8.322 8.322 0 0 0-8.312 8.312v10.747a1.218 1.218 0 1 0 2.435 0v-10.747a5.877 5.877 0 0 1 11.753 0v10.747a1.218 1.218 0 1 0 2.435 0v-10.747a8.321 8.321 0 0 0-8.311-8.312z" class="cls-1" data-name="Path 3822" transform="translate(28.953 .403)"/>
        <path id="Path_3823" d="M693.616 1120.764a7.674 7.674 0 0 0-6.461 3.546 7.67 7.67 0 0 0-14.136 4.133v11.382a1.217 1.217 0 0 0 2.434 0v-11.382a5.243 5.243 0 0 1 10.486 0v11.382a1.217 1.217 0 0 0 2.434 0v-11.382a5.243 5.243 0 0 1 10.486 0v11.382a1.217 1.217 0 0 0 2.434 0v-11.382a7.686 7.686 0 0 0-7.677-7.679z" class="cls-1" data-name="Path 3823" transform="translate(11.993 .403)"/>
        <path id="Path_3824" d="M673.772 1121.055a1.218 1.218 0 0 0-1.218 1.218v10.745a5.877 5.877 0 0 1-11.753 0v-10.745a1.217 1.217 0 1 0-2.435 0v10.745a8.312 8.312 0 0 0 16.623 0v-10.745a1.218 1.218 0 0 0-1.217-1.218z" class="cls-1" data-name="Path 3824" transform="translate(5.457 .533)"/>
        <path id="Path_3825" d="M658.955 1138.475h-4.513a5.883 5.883 0 0 1-5.877-5.877v-10.326a1.218 1.218 0 0 0-2.435 0v10.328a8.321 8.321 0 0 0 8.312 8.312h4.513a1.218 1.218 0 1 0 0-2.435z" class="cls-1" data-name="Path 3825" transform="translate(0 .533)"/>
        <path id="Path_3826" d="M704.808 1120.764c-5.355 0-9.71 4.642-9.71 10.348s4.351 10.342 9.7 10.346h.012a10.34 10.34 0 0 0 7.843-3.608 1.217 1.217 0 1 0-1.847-1.586 7.917 7.917 0 0 1-6 2.76 7.552 7.552 0 0 1-7.24-7.165h15.724a1.216 1.216 0 0 0 1.216-1.275 9.993 9.993 0 0 0-9.698-9.82zm-7.11 8.66a7.173 7.173 0 0 1 14.22 0z" class="cls-1" data-name="Path 3826" transform="translate(21.841 .403)"/>
        <g id="Group_1473" data-name="Group 1473" transform="translate(760.066 1119.861)">
            <path id="Path_3827" d="M732.066 1123.323a3.573 3.573 0 1 1-3.564-3.462 3.483 3.483 0 0 1 3.564 3.462zm-.73 0a2.842 2.842 0 1 0-2.834 2.775 2.773 2.773 0 0 0 2.834-2.775zm-1.4 1.242a1.066 1.066 0 0 0 .175.57h-.656a1.02 1.02 0 0 1-.146-.57l-.03-.38c-.029-.409-.145-.541-.51-.541h-1.008v1.491h-.643v-3.711h1.578c.79 0 1.3.365 1.3 1.037a.887.887 0 0 1-.541.876.737.737 0 0 1 .438.687zm-.6-2.03c0-.351-.22-.526-.644-.526h-.934v1.051h.994c.363-.001.583-.19.583-.526z" class="cls-1" data-name="Path 3827" transform="translate(-724.923 -1119.861)"/>
        </g>
    </g>
</svg>
