<svg xmlns="http://www.w3.org/2000/svg" width="37" height="24" viewBox="0 0 37 24">
    <defs>
        <style>
            .cls-1{fill:#10427a}.cls-2{fill:#ff5f00}.cls-3{fill:#eb001b}.cls-4{fill:#f79e1b}.cls-5{fill:#fff}
        </style>
    </defs>
    <g id="Mastercard" transform="translate(-.269)">
        <g id="Large">
            <g id="large_mastercard" data-name="large/mastercard">
                <rect id="Background" width="37" height="24" class="cls-1" rx="2" transform="translate(.269)"/>
                <g id="Logo" transform="translate(9.699 3.9)">
                    <g id="mastercard-2" data-name="mastercard">
                        <path id="Rectangle-path" d="M0 0h5.268v9.741H0z" class="cls-2" transform="translate(7.107 1.325)"/>
                        <path id="Shape" d="M7.442 6.2a6.279 6.279 0 0 1 2.291-4.87A5.877 5.877 0 0 0 6.02 0 6.106 6.106 0 0 0 0 6.2a6.106 6.106 0 0 0 6.02 6.2 5.877 5.877 0 0 0 3.712-1.325A6.253 6.253 0 0 1 7.442 6.2z" class="cls-3"/>
                        <path id="Shape-2" d="M59.726 6.2a6.106 6.106 0 0 1-6.02 6.2 5.877 5.877 0 0 1-3.712-1.325 6.227 6.227 0 0 0 2.29-4.875 6.279 6.279 0 0 0-2.291-4.87A5.877 5.877 0 0 1 53.706 0a6.117 6.117 0 0 1 6.02 6.2z" class="cls-4" data-name="Shape" transform="translate(-40.244)"/>
                    </g>
                    <path id="Shape-3" d="M2.842 74.306v-1.033a.631.631 0 0 0-.706-.654.754.754 0 0 0-.631.293.664.664 0 0 0-.594-.293.618.618 0 0 0-.52.241v-.206H0v1.652h.39v-.912a.387.387 0 0 1 .427-.43c.26 0 .39.155.39.43v.912H1.6v-.912a.4.4 0 0 1 .427-.43c.26 0 .39.155.39.43v.912zm5.776-1.652h-.632v-.5H7.6v.5h-.357v.327H7.6v.757c0 .379.167.6.613.6a1.1 1.1 0 0 0 .483-.12l-.111-.31a.648.648 0 0 1-.339.092c-.186 0-.26-.1-.26-.275v-.74h.631v-.327zm3.306-.034a.533.533 0 0 0-.464.241v-.206h-.39v1.652h.39v-.929c0-.275.13-.43.371-.43a1.167 1.167 0 0 1 .241.034l.111-.344a1.321 1.321 0 0 0-.26-.017zm-5 .172a1.353 1.353 0 0 0-.724-.172c-.446 0-.743.206-.743.533 0 .275.223.43.613.482l.186.017c.2.034.316.086.316.172 0 .12-.149.206-.409.206a1.081 1.081 0 0 1-.594-.172l-.186.275a1.389 1.389 0 0 0 .761.206c.52 0 .817-.224.817-.533 0-.293-.241-.447-.613-.5l-.186-.017c-.167-.017-.3-.052-.3-.155 0-.12.13-.189.334-.189a1.421 1.421 0 0 1 .557.138l.167-.293zm10.364-.172a.533.533 0 0 0-.464.241v-.206h-.39v1.652h.39v-.929c0-.275.13-.43.371-.43a1.167 1.167 0 0 1 .241.034l.111-.344a1.321 1.321 0 0 0-.26-.017zm-4.977.86a.862.862 0 0 0 .947.86.973.973 0 0 0 .631-.189l-.186-.293a.788.788 0 0 1-.464.155.507.507 0 0 1-.539-.533.526.526 0 0 1 .539-.533.788.788 0 0 1 .464.155l.186-.293a.973.973 0 0 0-.631-.189.862.862 0 0 0-.947.86zm3.6 0v-.826h-.39v.206a.692.692 0 0 0-.557-.241.861.861 0 1 0 0 1.721.644.644 0 0 0 .557-.241v.206h.39zm-1.43 0a.539.539 0 0 1 1.077 0 .539.539 0 0 1-1.077 0zm-4.662-.86a.861.861 0 1 0 .019 1.721 1.2 1.2 0 0 0 .724-.224l-.186-.258a.932.932 0 0 1-.52.172.5.5 0 0 1-.539-.4h1.319V73.5a.783.783 0 0 0-.817-.878zm0 .31a.422.422 0 0 1 .446.4h-.923a.459.459 0 0 1 .483-.4zm9.676.551V72h-.39v.86a.692.692 0 0 0-.557-.241.861.861 0 1 0 0 1.721.644.644 0 0 0 .557-.241v.206h.39zm-1.43 0a.539.539 0 0 1 1.077 0 .539.539 0 0 1-1.077 0zm-13.038 0v-.826h-.39v.206a.692.692 0 0 0-.557-.241.861.861 0 1 0 0 1.721.644.644 0 0 0 .557-.241v.206h.39zm-1.449 0a.515.515 0 0 1 .539-.533.516.516 0 0 1 .539.533.539.539 0 0 1-1.077 0z" class="cls-5" data-name="Shape" transform="translate(0 -57.959)"/>
                </g>
            </g>
        </g>
    </g>
</svg>
