<svg xmlns="http://www.w3.org/2000/svg" width="24" height="24" viewBox="0 0 24 24">
    <defs>
        <style>
            .cls-1{fill:none}.cls-2{fill:#4d4d4d}
        </style>
    </defs>
    <g id="Group_1688" data-name="Group 1688" transform="translate(-692 -770)">
        <path id="Rectangle_3415" d="M0 0h24v24H0z" class="cls-1" data-name="Rectangle 3415" transform="translate(692 770)"/>
        <path id="Path_3855" d="M10.444 4.51a9.456 9.456 0 0 1 3.47 3.62l.01.011a.723.723 0 0 0 1.131 0 7.8 7.8 0 0 1 2.859-2.276V5.86c1.293-.6 2.573-.872 2.492-4.546 0-.166-.126-.231-.291-.254C16.6.7 15.228 2.349 14.749 5.291a12.967 12.967 0 0 0-2.957-2.585l-.063-.043a1.125 1.125 0 0 0-1.285 1.847z" class="cls-2" data-name="Path 3855" transform="translate(689.51 769.747)"/>
        <path id="Path_3856" d="M18.147 9.047a4.963 4.963 0 0 0-3.668 2.082c-1.221 1.491-2.233 1.493-3.455 0a4.961 4.961 0 0 0-3.667-2.082c-3.228 0-5.01 5.028-4.121 9.614.8 4.121 3.943 6.816 6.494 6.816 1.511 0 1.51-.675 3.022-.675s1.512.675 3.023.675c2.55 0 5.694-2.694 6.494-6.816.913-4.713-.974-9.614-4.122-9.614z" class="cls-2" data-name="Path 3856" transform="translate(691.248 767.738)"/>
    </g>
</svg>
