<svg xmlns="http://www.w3.org/2000/svg" width="37" height="24" viewBox="0 0 37 24">
    <defs>
        <style>
            .cls-1{fill:#f7f7f7}.cls-2,.cls-3{fill:#002f86;fill-rule:evenodd}.cls-3{fill:#009cde}
        </style>
    </defs>
    <g id="Paypal" transform="translate(.113)">
        <g id="Large">
            <g id="large_visa" data-name="large/visa">
                <rect id="Background" width="37" height="24" class="cls-1" rx="2" transform="translate(-.113)"/>
                <g id="Logo" transform="translate(2.887 8)">
                    <g id="Group_1748" data-name="Group 1748">
                        <path id="path14519" d="M79.145 16.331h-1.152a.334.334 0 0 0-.275.143l-1.589 2.287-.673-2.2a.332.332 0 0 0-.319-.232H74a.2.2 0 0 0-.189.258l1.268 3.639-1.193 1.645a.2.2 0 0 0 .163.308H75.2a.336.336 0 0 0 .273-.14l3.831-5.4a.2.2 0 0 0-.164-.306m-7.7 2.18a1.27 1.27 0 0 1-1.294 1.07.979.979 0 0 1-.77-.3.936.936 0 0 1-.18-.787 1.274 1.274 0 0 1 1.284-1.078.977.977 0 0 1 .764.305.948.948 0 0 1 .194.792m1.6-2.18h-1.144a.2.2 0 0 0-.2.165l-.05.313-.08-.113a1.654 1.654 0 0 0-1.354-.47 2.615 2.615 0 0 0-2.558 2.253 2.079 2.079 0 0 0 .427 1.721 1.815 1.815 0 0 0 1.443.569 2.215 2.215 0 0 0 1.587-.641l-.051.311a.2.2 0 0 0 .2.225h1.032a.33.33 0 0 0 .329-.274l.62-3.835a.2.2 0 0 0-.2-.225m-6.878.027c-.131.84-.787.84-1.422.84h-.359l.253-1.568a.2.2 0 0 1 .2-.164H65c.432 0 .84 0 1.051.24a.767.767 0 0 1 .116.652m-.276-2.191h-2.398a.33.33 0 0 0-.329.274l-.968 6a.2.2 0 0 0 .2.225h1.143a.33.33 0 0 0 .328-.274l.261-1.618a.33.33 0 0 1 .328-.274h.757a2.443 2.443 0 0 0 2.724-2.224 1.77 1.77 0 0 0-.305-1.51 2.25 2.25 0 0 0-1.745-.6" class="cls-2" transform="translate(-62.194 -14.167)"/>
                        <path id="path14523" d="M154.744 14.332l-.982 6.108a.2.2 0 0 0 .2.225h.988a.33.33 0 0 0 .328-.274l.969-6a.2.2 0 0 0-.2-.225h-1.105a.2.2 0 0 0-.2.165m-2.948 4.18a1.27 1.27 0 0 1-1.294 1.07.979.979 0 0 1-.77-.3.934.934 0 0 1-.18-.787 1.274 1.274 0 0 1 1.284-1.078.977.977 0 0 1 .764.305.948.948 0 0 1 .194.792m1.6-2.18h-1.146a.2.2 0 0 0-.2.165l-.05.313-.08-.113a1.653 1.653 0 0 0-1.354-.47 2.615 2.615 0 0 0-2.558 2.253 2.079 2.079 0 0 0 .427 1.721 1.814 1.814 0 0 0 1.443.569 2.215 2.215 0 0 0 1.587-.641l-.051.311a.2.2 0 0 0 .2.225h1.032a.33.33 0 0 0 .329-.274l.62-3.835a.2.2 0 0 0-.2-.225m-6.878.027c-.131.84-.787.84-1.422.84h-.361l.253-1.568a.2.2 0 0 1 .2-.164h.166c.432 0 .84 0 1.051.24a.767.767 0 0 1 .116.652m-.276-2.191h-2.394a.331.331 0 0 0-.329.274l-.968 6a.2.2 0 0 0 .2.225h1.228a.231.231 0 0 0 .23-.192l.275-1.7a.33.33 0 0 1 .328-.274h.757a2.442 2.442 0 0 0 2.724-2.224 1.769 1.769 0 0 0-.305-1.51 2.25 2.25 0 0 0-1.745-.6" class="cls-3" transform="translate(-125.474 -14.167)"/>
                    </g>
                </g>
            </g>
        </g>
    </g>
</svg>
