<svg xmlns="http://www.w3.org/2000/svg" width="37" height="24" viewBox="0 0 37 24">
    <defs>
        <style>
            .cls-1{fill:#f7f7f7}.cls-2{fill:#26439a}
        </style>
    </defs>
    <g id="Visa" transform="translate(.295)">
        <g id="Large">
            <g id="large_visa" data-name="large/visa">
                <rect id="Background" width="37" height="24" class="cls-1" rx="2" transform="translate(-.295)"/>
                <g id="Logo" transform="translate(5.706 8)">
                    <path id="Shape" d="M12.929-37.447c-.014 1.112 1 1.733 1.768 2.1.787.379 1.051.622 1.048.96-.006.518-.628.747-1.209.756a4.257 4.257 0 0 1-2.074-.488l-.362 1.694a6.141 6.141 0 0 0 2.246.41c2.121 0 3.51-1.036 3.517-2.642.008-2.038-2.85-2.151-2.831-3.062.007-.276.273-.571.857-.646a3.84 3.84 0 0 1 1.992.345l.355-1.637A5.467 5.467 0 0 0 16.342-40c-2 0-3.4 1.05-3.413 2.553m8.715-2.412a.921.921 0 0 0-.86.567l-3.031 7.157h2.12l.422-1.153h2.591l.245 1.153H25l-1.631-7.724h-1.725m.3 2.087l.612 2.9h-1.679l1.064-2.9m-11.582-2.087l-1.671 7.724h2.02l1.67-7.724h-2.019m-2.989 0L5.268-34.6l-.851-4.47a.939.939 0 0 0-.932-.787H.048L0-39.635a8.474 8.474 0 0 1 1.993.657.846.846 0 0 1 .48.679l1.611 6.164h2.135l3.273-7.724H7.37" class="cls-2" transform="translate(0 40)"/>
                </g>
            </g>
        </g>
    </g>
</svg>
