<svg xmlns="http://www.w3.org/2000/svg" width="23.397" height="24" viewBox="0 0 23.397 24">
    <defs>
        <style>
            .cls-1{fill:#4d4d4d}
        </style>
    </defs>
    <g id="Group_1689" data-name="Group 1689" transform="translate(-311.001 -770)">
        <path id="Path_3865" d="M30.234 6.217l-2.749-.448a.463.463 0 0 0-.533.391l-.359 2.459a49.484 49.484 0 0 0-15.336 0l-.357-2.46a.464.464 0 0 0-.533-.391l-2.749.448a.464.464 0 0 0-.384.524l1.007 6.9a.464.464 0 0 0 .459.4c.025 0 2.824-.454 2.824-.454a.464.464 0 0 0 .384-.524l-.408-2.831 1.539-.241a33.141 33.141 0 0 0 3.49 11.286l-6.1 6.553a1.137 1.137 0 0 0 1.514 1.682l7.146-5.746 3.193 1.049-.444 3.486a1.3 1.3 0 0 0 2.575.33l.581-4.539a1.276 1.276 0 0 0-.54-1.21l-2.91-2.009a35.02 35.02 0 0 0 3.28-10.88c.569.068 1.089.137 1.539.2l-.419 2.87a.464.464 0 0 0 .384.524s2.8.454 2.824.454a.466.466 0 0 0 .459-.4l1.007-6.9a.464.464 0 0 0-.384-.523zm-8.493 8.163h-.028a2.952 2.952 0 0 1-2.787 2.082c-2.39 0-3.155-2.123-3.879-6.678a43.125 43.125 0 0 1 7.772 0 28.467 28.467 0 0 1-1.078 4.596z" class="cls-1" data-name="Path 3865" transform="translate(303.774 764.237)"/>
        <ellipse id="Ellipse_682" cx="2.015" cy="2.115" class="cls-1" data-name="Ellipse 682" rx="2.015" ry="2.115" transform="translate(320.684 775.551)"/>
    </g>
</svg>
